<?xml version="1.0" standalone="no"?>
<!DOCTYPE svg PUBLIC "-//W3C//DTD SVG 20010904//EN"
 "http://www.w3.org/TR/2001/REC-SVG-20010904/DTD/svg10.dtd">
<svg version="1.0" xmlns="http://www.w3.org/2000/svg"
 width="452.000000pt" height="99.000000pt" viewBox="0 0 452.000000 99.000000"
 preserveAspectRatio="xMidYMid meet">

<g transform="translate(0.000000,99.000000) scale(0.100000,-0.100000)"
fill="#000000" stroke="none">
<path d="M0 972 c0 -10 5 -23 12 -30 8 -8 8 -15 0 -25 -8 -9 -8 -17 -1 -24 6
-6 6 -19 -1 -37 -5 -15 -10 -57 -9 -94 l0 -67 20 70 c10 39 24 91 31 118 8 30
18 47 28 47 8 0 39 9 68 20 77 29 95 25 42 -10 -26 -18 -56 -29 -70 -28 -36 3
-47 -7 -42 -41 3 -19 -5 -44 -22 -73 -14 -25 -26 -49 -26 -54 0 -5 14 14 30
43 17 29 30 59 30 68 0 8 8 15 18 15 16 1 16 1 0 11 -26 15 -22 27 7 22 16 -4
42 6 80 30 l56 35 -30 10 c-19 7 -44 7 -71 1 -29 -7 -46 -6 -55 1 -9 8 -15 8
-20 0 -4 -7 -12 -7 -25 0 -29 15 -50 12 -50 -8z m50 -7 c22 -27 5 -37 -19 -11
-19 20 -21 26 -9 26 9 0 21 -7 28 -15z m44 -17 c-10 -16 -22 -7 -17 13 4 15 8
17 14 8 4 -7 5 -17 3 -21z m-51 -49 c-6 -6 -17 -8 -24 -3 -9 5 -8 9 7 14 23 9
31 3 17 -11z"/>
<path d="M756 981 c-3 -4 -28 -6 -55 -3 -28 2 -62 1 -77 -2 l-28 -7 40 -25
c21 -13 51 -29 67 -36 15 -7 27 -18 27 -25 0 -7 6 -13 13 -14 6 0 25 -27 41
-60 16 -32 31 -57 33 -55 3 3 -7 25 -22 50 -17 29 -25 56 -23 71 5 21 3 23
-15 13 -17 -9 -19 -8 -14 6 5 12 0 16 -16 16 -12 0 -42 14 -66 30 -24 17 -37
30 -28 30 27 0 127 -41 127 -51 0 -6 7 -4 15 5 8 8 15 19 15 25 0 10 31 31 45
31 4 0 -3 -12 -14 -26 -22 -28 -20 -44 7 -44 12 0 13 -3 4 -12 -8 -8 -15 -8
-28 3 -16 12 -17 12 -11 -4 25 -66 48 -161 44 -177 -3 -11 -1 -18 4 -14 13 8
11 131 -2 156 -6 11 -7 23 -3 27 5 3 10 27 11 54 2 48 -6 57 -36 38 -9 -6 -22
-6 -32 0 -10 5 -20 5 -23 0z m24 -33 c0 -5 -4 -8 -10 -8 -5 0 -10 10 -10 23 0
18 2 19 10 7 5 -8 10 -18 10 -22z"/>
<path d="M287 956 c-168 -71 -277 -251 -277 -461 0 -196 101 -375 255 -451 54
-26 70 -29 160 -29 93 0 105 2 167 33 109 54 199 168 233 297 19 76 19 224 0
300 -33 124 -120 238 -227 295 -57 31 -72 35 -158 37 -83 3 -103 0 -153 -21z
m183 -16 c0 -5 -18 -10 -40 -10 -22 0 -40 5 -40 10 0 6 18 10 40 10 22 0 40
-4 40 -10z m-170 -29 c0 -12 -71 -53 -79 -46 -7 8 49 55 67 55 6 0 12 -4 12
-9z m165 -416 l0 -420 -37 -3 -38 -3 0 426 0 426 38 -3 37 -3 0 -420z m136
408 c16 -10 29 -23 29 -30 0 -10 -12 -7 -40 9 -39 23 -51 38 -29 38 6 0 24 -8
40 -17z m-303 -609 l-3 -194 -38 25 -37 26 2 347 3 346 35 24 35 23 3 -201 c1
-111 1 -289 0 -396z m332 206 c0 -379 3 -358 -57 -389 l-23 -12 0 396 0 396
40 -22 40 -23 0 -346z m-508 231 c-25 -44 -52 -136 -51 -170 0 -14 7 1 14 34
14 61 41 135 50 135 3 0 5 -120 4 -267 -1 -265 -1 -267 -20 -243 -56 73 -89
231 -72 349 15 100 79 248 91 211 3 -7 -5 -29 -16 -49z m644 -21 c63 -137 58
-314 -11 -450 -14 -28 -27 -50 -30 -50 -2 0 -4 132 -4 293 0 314 -1 308 45
207z m-502 -601 c33 -19 47 -39 29 -39 -15 0 -73 40 -73 50 0 14 4 13 44 -11z
m366 8 c0 -17 -66 -54 -77 -43 -4 4 -1 11 7 16 8 5 24 16 35 24 25 19 35 20
35 3z m-165 -67 c-3 -5 -22 -10 -41 -10 -19 0 -34 5 -34 10 0 6 18 10 41 10
24 0 38 -4 34 -10z"/>
<path d="M63 495 c0 -22 2 -30 4 -17 2 12 2 30 0 40 -3 9 -5 -1 -4 -23z"/>
<path d="M71 429 c-1 -40 44 -177 55 -166 3 3 -2 20 -11 37 -9 18 -23 60 -30
94 -7 33 -14 49 -14 35z"/>
<path d="M731 717 c-1 -5 4 -17 9 -27 6 -10 17 -43 25 -72 12 -41 14 -44 11
-16 -4 33 -43 133 -45 115z"/>
<path d="M783 495 c0 -38 2 -53 4 -32 2 20 2 52 0 70 -2 17 -4 1 -4 -38z"/>
<path d="M772 400 c0 -14 2 -19 5 -12 2 6 2 18 0 25 -3 6 -5 1 -5 -13z"/>
<path d="M748 322 c-22 -60 -15 -67 7 -7 10 25 16 47 14 50 -3 2 -12 -17 -21
-43z"/>
<path d="M1074 901 c-65 -40 -73 -151 -15 -203 36 -32 94 -38 127 -13 25 19
32 19 37 -2 3 -10 5 12 6 50 l1 67 -50 0 c-27 0 -50 -4 -50 -10 0 -5 18 -10
40 -10 36 0 40 -3 40 -24 0 -31 -43 -66 -82 -66 -64 0 -105 86 -73 153 30 63
97 72 142 19 27 -32 42 -22 19 13 -30 46 -90 57 -142 26z"/>
<path d="M3164 901 c-51 -31 -69 -113 -39 -171 35 -67 115 -82 166 -31 28 29
39 61 20 61 -6 0 -16 -12 -23 -27 -25 -52 -102 -56 -135 -7 -25 39 -22 109 7
139 13 14 32 27 42 31 26 8 76 -14 83 -37 6 -19 35 -27 35 -10 0 6 -10 22 -23
36 -30 36 -91 43 -133 16z"/>
<path d="M2080 790 c0 -73 4 -120 10 -120 6 0 10 47 10 120 0 73 -4 120 -10
120 -6 0 -10 -47 -10 -120z"/>
<path d="M2140 895 c0 -8 5 -15 10 -15 6 0 10 7 10 15 0 8 -4 15 -10 15 -5 0
-10 -7 -10 -15z"/>
<path d="M2790 871 l0 -39 -30 11 c-46 17 -82 0 -99 -48 -27 -80 28 -145 101
-117 16 6 28 6 28 1 0 -5 5 -9 10 -9 6 0 10 47 10 120 0 73 -4 120 -10 120 -5
0 -10 -18 -10 -39z m-16 -63 c46 -66 -24 -157 -78 -102 -18 18 -21 76 -6 105
15 27 64 25 84 -3z"/>
<path d="M3800 790 c0 -73 4 -120 10 -120 6 0 10 47 10 120 0 73 -4 120 -10
120 -6 0 -10 -47 -10 -120z"/>
<path d="M2210 875 c0 -16 -6 -25 -15 -25 -8 0 -15 -4 -15 -10 0 -5 7 -10 15
-10 12 0 15 -15 15 -74 0 -75 6 -86 46 -86 21 0 17 17 -6 23 -17 4 -20 14 -20
71 0 59 2 66 20 66 11 0 20 5 20 10 0 6 -9 10 -20 10 -15 0 -20 7 -20 25 0 14
-4 25 -10 25 -5 0 -10 -11 -10 -25z"/>
<path d="M2480 875 c0 -16 -6 -25 -15 -25 -8 0 -15 -4 -15 -10 0 -5 7 -10 15
-10 12 0 15 -14 15 -68 0 -40 5 -73 12 -80 15 -15 48 -16 48 -2 0 6 -6 10 -14
10 -19 0 -26 22 -26 82 0 41 3 51 20 55 11 3 20 9 20 14 0 5 -9 9 -20 9 -15 0
-20 7 -20 25 0 14 -4 25 -10 25 -5 0 -10 -11 -10 -25z"/>
<path d="M3540 875 c0 -16 -6 -25 -15 -25 -8 0 -15 -4 -15 -10 0 -5 7 -10 15
-10 11 0 15 -18 17 -77 3 -72 5 -78 26 -81 25 -4 30 13 7 22 -11 4 -15 22 -15
71 0 51 3 65 15 65 8 0 15 5 15 10 0 6 -7 10 -15 10 -9 0 -15 9 -15 25 0 14
-4 25 -10 25 -5 0 -10 -11 -10 -25z"/>
<path d="M1290 830 c-15 -15 -20 -33 -20 -70 0 -61 24 -90 73 -90 38 0 50 7
66 38 15 29 -8 31 -27 2 -22 -36 -92 -16 -92 26 0 11 16 14 66 14 l67 0 -7 32
c-3 17 -14 40 -23 50 -22 24 -78 23 -103 -2z m88 -12 c7 -7 12 -20 12 -30 0
-15 -9 -18 -50 -18 -54 0 -62 10 -33 42 18 21 53 24 71 6z"/>
<path d="M1450 760 c0 -53 4 -90 10 -90 6 0 10 28 10 63 0 76 14 100 55 95
l30 -3 3 -77 c2 -60 6 -78 17 -78 19 0 21 113 2 150 -14 28 -68 40 -93 19 -10
-8 -14 -8 -14 0 0 6 -4 11 -10 11 -6 0 -10 -37 -10 -90z"/>
<path d="M1640 830 c-15 -15 -20 -33 -20 -70 0 -62 23 -90 75 -90 34 0 75 27
75 50 0 17 -25 11 -38 -10 -15 -25 -54 -26 -75 -2 -31 34 -21 42 48 42 62 0
65 1 65 24 0 13 -9 35 -21 50 -26 33 -79 36 -109 6z m94 -22 c24 -34 20 -38
-39 -38 -59 0 -68 10 -38 42 22 25 59 23 77 -4z"/>
<path d="M1800 760 c0 -53 4 -90 10 -90 6 0 10 24 10 54 0 68 7 85 36 97 13 4
24 13 24 19 0 15 -21 12 -42 -7 -17 -15 -18 -15 -18 0 0 10 -4 17 -10 17 -6 0
-10 -37 -10 -90z"/>
<path d="M1917 832 c-10 -10 -17 -24 -17 -30 0 -19 18 -14 30 9 16 28 74 23
78 -7 3 -22 -19 -34 -64 -34 -24 0 -54 -29 -54 -53 0 -39 78 -65 108 -35 8 8
15 8 27 -2 19 -15 34 -5 17 12 -7 7 -12 39 -12 73 0 34 -5 66 -12 73 -19 19
-82 15 -101 -6z m93 -97 c0 -46 -82 -63 -88 -17 -4 24 22 40 66 41 17 1 22 -5
22 -24z"/>
<path d="M2140 760 c0 -53 4 -90 10 -90 6 0 10 37 10 90 0 53 -4 90 -10 90 -6
0 -10 -37 -10 -90z"/>
<path d="M2318 839 c-10 -5 -18 -19 -18 -29 0 -26 16 -26 23 0 6 25 58 28 78
4 11 -14 10 -18 -6 -30 -10 -8 -30 -14 -43 -14 -39 0 -62 -18 -62 -48 0 -16 5
-33 12 -40 14 -14 67 -16 87 -3 9 6 21 5 32 -2 10 -6 22 -7 26 -3 4 5 2 11 -4
13 -9 3 -13 26 -13 68 0 44 -5 68 -16 79 -17 18 -70 21 -96 5z m92 -92 c0 -7
-7 -23 -16 -35 -18 -26 -69 -30 -78 -6 -10 26 -7 32 22 42 39 15 72 14 72 -1z"/>
<path d="M2878 840 c-27 -16 -41 -74 -28 -115 20 -61 92 -77 130 -28 14 18 17
29 10 31 -6 2 -18 -5 -26 -17 -18 -25 -56 -27 -78 -5 -33 33 -20 44 50 44 l67
0 -7 32 c-3 17 -14 40 -23 50 -17 19 -67 24 -95 8z m80 -22 c7 -7 12 -20 12
-30 0 -15 -9 -18 -50 -18 -37 0 -50 4 -50 14 0 37 61 61 88 34z"/>
<path d="M3367 832 c-18 -19 -23 -42 -9 -42 4 0 13 9 20 21 18 28 76 23 80 -7
3 -22 -19 -34 -64 -34 -24 0 -54 -29 -54 -53 0 -39 78 -65 108 -35 8 8 15 8
27 -2 19 -15 34 -5 17 12 -7 7 -12 39 -12 73 0 34 -5 66 -12 73 -19 19 -82 15
-101 -6z m93 -91 c0 -49 -81 -71 -88 -23 -2 16 3 25 20 31 40 17 68 13 68 -8z"/>
<path d="M3637 832 c-10 -10 -17 -24 -17 -30 0 -19 18 -14 30 9 16 28 74 23
78 -7 3 -22 -19 -34 -65 -34 -13 0 -30 -11 -39 -25 -15 -23 -15 -27 0 -50 18
-27 72 -35 94 -13 8 8 15 8 27 -2 21 -17 29 -7 16 18 -6 12 -11 45 -11 74 0
30 -5 59 -12 66 -19 19 -82 15 -101 -6z m93 -97 c0 -46 -82 -63 -88 -17 -4 24
22 40 66 41 17 1 22 -5 22 -24z"/>
<path d="M3860 779 c0 -88 10 -109 53 -109 18 0 39 6 46 13 11 10 14 10 18 0
13 -36 23 -3 23 77 0 53 -4 90 -10 90 -5 0 -10 -24 -10 -52 0 -64 -18 -102
-48 -106 -40 -6 -52 14 -52 89 0 39 -4 69 -10 69 -6 0 -10 -30 -10 -71z"/>
<path d="M4040 760 c0 -53 4 -90 10 -90 6 0 10 27 10 61 0 76 12 99 51 99 36
0 49 -27 49 -106 0 -30 5 -54 10 -54 17 0 12 133 -6 158 -17 25 -71 31 -92 10
-9 -9 -12 -9 -12 0 0 7 -4 12 -10 12 -6 0 -10 -37 -10 -90z"/>
<path d="M4200 841 c0 -4 14 -41 30 -82 35 -83 35 -110 3 -124 -31 -13 -29
-27 4 -23 25 3 31 13 70 117 40 104 47 140 24 115 -5 -5 -19 -37 -31 -71 -13
-35 -24 -63 -25 -63 -1 0 -14 32 -29 70 -15 39 -32 70 -37 70 -5 0 -9 -4 -9
-9z"/>
<path d="M4386 834 c-17 -16 -22 -44 -8 -44 4 0 13 9 20 21 18 29 76 23 80 -8
3 -18 -3 -23 -35 -28 -62 -11 -72 -15 -78 -36 -16 -49 30 -83 85 -62 17 6 31
6 42 -1 21 -13 36 0 20 16 -7 7 -12 39 -12 73 0 34 -5 66 -12 73 -17 17 -84
15 -102 -4z m94 -91 c0 -42 -64 -70 -90 -38 -14 17 -6 33 24 45 36 15 66 12
66 -7z"/>
<path d="M1052 468 c-23 -62 -42 -116 -42 -120 0 -5 11 -8 23 -8 16 0 28 9 35
25 10 21 18 25 56 25 38 0 45 -3 50 -25 5 -20 13 -25 36 -25 l29 0 -26 68
c-14 37 -33 90 -43 117 -15 44 -21 50 -47 53 -29 3 -30 2 -71 -110z m87 1 c14
-41 15 -39 -18 -39 -29 0 -29 1 -18 35 13 43 22 44 36 4z"/>
<path d="M1501 554 c15 -14 34 -24 43 -22 28 5 -9 48 -42 48 l-27 0 26 -26z"/>
<path d="M2040 560 c0 -13 7 -20 20 -20 13 0 20 7 20 20 0 13 -7 20 -20 20
-13 0 -20 -7 -20 -20z"/>
<path d="M2441 554 c-51 -43 -54 -138 -5 -187 49 -49 141 -42 169 14 8 15 15
33 15 39 0 20 -42 10 -62 -15 -40 -51 -103 -17 -103 57 0 66 61 101 100 58 10
-11 29 -20 42 -20 26 0 27 3 11 33 -18 35 -40 46 -90 47 -36 0 -54 -6 -77 -26z"/>
<path d="M3150 460 l0 -120 25 0 25 0 0 120 0 120 -25 0 -25 0 0 -120z"/>
<path d="M2860 540 c0 -11 -7 -23 -15 -26 -19 -8 -20 -34 0 -34 11 0 15 -16
17 -67 l3 -68 38 -3 c31 -3 37 0 37 16 0 11 -9 22 -20 25 -16 4 -20 14 -20 51
0 39 3 46 20 46 11 0 20 6 20 14 0 7 -9 16 -20 19 -12 3 -20 14 -20 26 0 14
-6 21 -20 21 -13 0 -20 -7 -20 -20z"/>
<path d="M1275 495 c-27 -26 -34 -80 -14 -116 14 -28 53 -41 85 -29 23 9 25 8
22 -12 -3 -26 -43 -37 -61 -19 -13 13 -57 15 -57 3 0 -24 44 -47 88 -46 69 2
82 23 82 141 l0 95 -30 -4 c-17 -3 -33 -1 -36 4 -10 17 -56 7 -79 -17z m84
-29 c17 -20 10 -67 -11 -79 -23 -15 -48 8 -48 42 0 45 35 66 59 37z"/>
<path d="M1495 508 c-33 -19 -44 -41 -45 -84 0 -54 31 -84 88 -84 30 0 47 6
62 23 19 19 19 22 5 25 -9 2 -30 -2 -46 -8 -23 -10 -32 -10 -44 0 -27 22 -16
30 45 30 53 0 60 2 60 20 0 67 -69 110 -125 78z m63 -40 c20 -20 14 -28 -23
-28 -22 0 -35 5 -35 13 0 28 36 37 58 15z"/>
<path d="M1715 510 c-3 -5 -19 -7 -35 -3 l-30 6 0 -87 c0 -79 2 -86 20 -86 17
0 20 7 21 43 2 69 12 92 39 92 24 0 25 -3 28 -67 3 -65 4 -68 27 -68 24 0 25
2 25 70 0 57 -4 74 -20 90 -21 21 -65 27 -75 10z"/>
<path d="M1884 509 c-46 -23 -58 -99 -23 -143 38 -48 149 -27 149 29 0 23 -39
18 -60 -7 -15 -19 -22 -21 -37 -12 -21 13 -29 69 -12 90 15 18 48 18 55 -1 6
-16 54 -21 54 -6 0 40 -82 72 -126 50z"/>
<path d="M2160 514 c-17 -7 -40 -33 -40 -46 0 -12 38 -10 59 4 20 12 51 5 51
-11 0 -6 -11 -13 -25 -16 -14 -3 -36 -7 -50 -10 -33 -7 -48 -36 -35 -69 9 -25
13 -26 85 -25 l75 1 0 73 c0 51 -4 76 -15 85 -16 14 -83 22 -105 14z m70 -106
c0 -25 -17 -40 -40 -36 -32 4 -37 26 -8 37 33 14 48 13 48 -1z"/>
<path d="M2685 509 c-21 -13 -35 -29 -35 -41 0 -12 48 -10 55 2 3 6 17 10 31
10 34 0 31 -28 -3 -35 -74 -15 -78 -18 -78 -60 l0 -40 78 -2 77 -2 0 73 c0 52
-4 77 -15 86 -21 17 -87 22 -110 9z m75 -101 c0 -25 -17 -40 -40 -36 -32 4
-37 26 -8 37 33 14 48 13 48 -1z"/>
<path d="M2990 508 c-35 -19 -39 -48 -6 -48 14 0 26 5 26 10 0 11 43 14 53 3
12 -12 -15 -33 -43 -33 -15 0 -38 -9 -51 -19 -20 -16 -22 -23 -14 -47 10 -28
12 -29 88 -31 l77 -2 0 68 c0 39 -5 75 -13 85 -17 23 -85 31 -117 14z m80
-102 c0 -19 -26 -38 -46 -34 -27 5 -28 27 -2 37 33 14 48 13 48 -3z"/>
<path d="M3270 507 c-33 -16 -39 -47 -10 -47 12 0 28 7 36 15 17 16 44 10 44
-11 0 -7 -12 -16 -27 -19 -16 -4 -38 -8 -50 -11 -26 -5 -41 -49 -26 -73 8 -12
29 -16 84 -18 l74 -1 -3 79 c-3 75 -5 81 -28 90 -34 12 -64 11 -94 -4z m71
-109 c-10 -27 -61 -39 -61 -14 0 17 27 35 52 36 14 0 16 -5 9 -22z"/>
<path d="M3500 511 c-8 -6 -27 -7 -42 -4 l-28 6 0 -87 c0 -85 0 -86 25 -86 24
0 25 2 25 64 0 56 3 66 20 71 33 10 40 -3 40 -71 0 -62 1 -64 25 -64 24 0 25
2 25 74 0 66 -3 77 -22 90 -25 18 -46 20 -68 7z"/>
<path d="M3663 510 c-12 -5 -27 -18 -33 -29 -9 -18 -8 -21 12 -21 13 0 31 7
41 15 11 7 25 11 33 8 24 -9 16 -32 -13 -38 -16 -4 -38 -8 -50 -11 -26 -5 -41
-49 -26 -73 8 -12 29 -16 84 -18 l74 -1 -3 74 c-3 62 -7 76 -25 89 -24 17 -60
18 -94 5z m65 -112 c-2 -17 -11 -24 -30 -26 -32 -4 -39 21 -10 37 29 17 44 13
40 -11z"/>
<path d="M2040 425 c0 -78 2 -85 20 -85 18 0 20 7 20 85 0 78 -2 85 -20 85
-18 0 -20 -7 -20 -85z"/>
<path d="M1 228 c-1 -37 4 -79 9 -94 7 -17 7 -30 0 -38 -6 -9 -6 -16 2 -24 9
-9 9 -15 0 -24 -18 -18 -15 -48 6 -48 10 0 23 5 30 12 8 8 15 8 26 -1 9 -8 16
-8 20 -2 4 6 27 8 55 4 27 -3 62 -2 77 1 26 7 25 8 -36 46 -49 30 -67 37 -82
29 -24 -13 -25 6 0 20 16 10 16 10 0 11 -10 0 -18 7 -18 15 0 9 -13 39 -30 68
-16 29 -30 48 -30 43 0 -5 12 -29 26 -53 14 -25 24 -56 23 -71 -4 -38 6 -49
38 -45 19 3 42 -6 73 -27 53 -35 35 -39 -42 -10 -29 11 -60 20 -68 20 -10 0
-20 17 -28 48 -7 26 -21 79 -31 117 l-20 70 0 -67z m46 -145 c3 -7 -4 -9 -16
-6 -12 3 -18 9 -15 15 7 11 26 6 31 -9z m3 -58 c-7 -8 -19 -15 -28 -15 -12 0
-10 6 9 26 24 26 41 16 19 -11z m44 17 c2 -4 1 -14 -3 -21 -6 -9 -10 -7 -14 8
-5 20 7 29 17 13z"/>
<path d="M837 270 c4 -16 -19 -111 -44 -177 -6 -16 -5 -16 11 -4 13 11 20 11
28 3 9 -9 8 -12 -4 -12 -28 0 -31 -20 -7 -47 21 -22 22 -25 5 -22 -10 2 -24
13 -30 24 -6 11 -14 22 -17 25 -17 14 -7 87 17 128 14 24 24 45 21 48 -2 2
-17 -23 -33 -55 -16 -33 -35 -60 -41 -60 -7 -1 -13 -7 -13 -15 0 -8 -10 -17
-22 -20 -13 -3 -36 -17 -53 -31 -39 -32 -29 -32 15 0 19 14 44 25 57 25 17 0
21 4 16 17 -4 11 -3 14 5 9 7 -4 12 -16 12 -26 0 -24 -58 -51 -112 -53 -21 -1
-38 -3 -38 -5 0 -11 54 -19 91 -12 24 5 48 5 53 0 5 -5 17 -5 27 0 11 7 20 7
24 0 3 -5 15 -10 25 -10 16 0 19 7 17 48 -1 26 -6 50 -11 53 -4 4 -3 16 3 27
13 25 15 148 2 156 -5 4 -7 -3 -4 -14z m-57 -227 c0 -5 -5 -15 -10 -23 -8 -12
-10 -11 -10 8 0 12 5 22 10 22 6 0 10 -3 10 -7z"/>
<path d="M1150 206 l0 -34 -44 5 c-59 7 -86 -18 -86 -82 0 -62 35 -100 83 -91
18 4 44 6 60 6 l27 0 0 115 c0 108 -1 115 -20 115 -16 0 -20 -7 -20 -34z m-14
-81 c30 -46 -12 -107 -51 -75 -21 18 -19 77 3 89 25 15 30 14 48 -14z"/>
<path d="M1500 220 c0 -16 7 -20 35 -20 l35 0 0 -95 c0 -95 0 -95 25 -95 25 0
25 0 25 95 l0 95 35 0 c28 0 35 4 35 20 0 19 -7 20 -95 20 -88 0 -95 -1 -95
-20z"/>
<path d="M2010 220 c0 -15 7 -20 25 -20 18 0 25 5 25 20 0 15 -7 20 -25 20
-18 0 -25 -5 -25 -20z"/>
<path d="M1245 155 c-35 -34 -35 -96 0 -130 34 -35 87 -34 123 2 24 25 25 28
8 31 -10 2 -29 -1 -41 -8 -29 -15 -59 -9 -63 13 -3 15 5 17 57 17 57 0 61 1
61 24 0 13 -9 35 -21 50 -28 36 -89 37 -124 1z m83 -17 c20 -20 14 -28 -23
-28 -38 0 -46 13 -17 29 22 13 26 13 40 -1z"/>
<path d="M1690 100 c0 -75 2 -81 24 -91 15 -7 36 -8 53 -4 15 4 40 7 56 6 l27
-3 0 86 c0 85 0 86 -25 86 -23 0 -24 -4 -27 -61 -2 -45 -8 -65 -20 -72 -30
-19 -48 8 -48 74 0 52 -2 59 -20 59 -18 0 -20 -7 -20 -80z"/>
<path d="M1880 95 c0 -84 0 -85 25 -85 23 0 25 3 25 49 0 51 17 81 46 81 8 0
14 9 14 20 0 23 -29 27 -48 8 -9 -9 -12 -9 -12 0 0 7 -11 12 -25 12 -25 0 -25
-1 -25 -85z"/>
<path d="M2010 95 c0 -84 0 -85 25 -85 25 0 25 1 25 85 0 84 0 85 -25 85 -25
0 -25 -1 -25 -85z"/>
<path d="M2107 162 c-10 -10 -17 -26 -17 -35 0 -18 37 -47 60 -47 9 0 25 -7
36 -15 16 -13 17 -16 4 -25 -20 -13 -26 -13 -44 5 -16 17 -56 20 -56 5 0 -5 9
-19 20 -30 42 -42 140 -15 140 38 0 24 -31 52 -56 52 -11 0 -29 6 -40 14 -18
14 -18 15 0 22 10 4 27 2 37 -4 26 -16 49 -15 49 3 0 36 -104 49 -133 17z"/>
<path d="M2280 94 c0 -82 0 -84 25 -84 23 0 24 4 27 62 2 52 6 63 22 66 26 5
36 -15 36 -75 0 -46 3 -53 20 -53 18 0 20 7 20 54 0 58 18 90 45 80 11 -5 15
-23 15 -70 0 -62 1 -64 25 -64 24 0 25 2 25 73 0 43 -5 78 -12 85 -15 15 -62
16 -88 2 -12 -6 -21 -7 -25 0 -3 5 -35 9 -70 8 l-65 -1 0 -83z"/>
<path d="M2595 155 c-19 -18 -25 -35 -25 -65 0 -83 90 -121 148 -63 24 25 25
28 8 31 -10 2 -29 -1 -41 -8 -29 -15 -59 -9 -63 13 -3 15 5 17 57 17 57 0 61
1 61 24 0 13 -9 35 -21 50 -28 36 -89 37 -124 1z m83 -17 c20 -20 14 -28 -23
-28 -38 0 -46 13 -17 29 22 13 26 13 40 -1z"/>
</g>
</svg>
