<?xml version="1.0" encoding="UTF-8"?>
<!-- Generator: Adobe Illustrator 25.2.2, SVG Export Plug-In . SVG Version: 6.00 Build 0)  -->
<svg xmlns="http://www.w3.org/2000/svg" xmlns:xlink="http://www.w3.org/1999/xlink" version="1.1" id="Capa_1" x="0px" y="0px" viewBox="0 0 561.2 119.9" style="enable-background:new 0 0 561.2 119.9;" xml:space="preserve">
<style type="text/css">
	.st0{fill:#343741;}
	.st1{fill:#01B5E7;}
</style>
<g>
	<g>
		<path class="st0" d="M32.6,40.1H18c-2.7,0-4.9-2.2-4.9-4.9c0-2.7,2.1-4.9,4.9-4.9h39.8c2.6,0,4.8,2.2,4.8,4.9    c0,2.6-2.1,4.9-4.8,4.9H43.2v45.3c0,2.9-2.4,5.2-5.3,5.2c-2.9,0-5.3-2.3-5.3-5.2V40.1z"></path>
		<path class="st0" d="M68.1,84.9V35.7c0-3,2.3-5.3,5.3-5.3h34.8c2.6,0,4.7,2.1,4.7,4.7c0,2.7-2.1,4.7-4.7,4.7H78.6v15.6h25.7    c2.6,0,4.7,2.1,4.7,4.8c0,2.6-2.1,4.6-4.7,4.6H78.6v16.1h30c2.6,0,4.7,2.1,4.7,4.7c0,2.6-2.1,4.7-4.7,4.7H73.4    C70.4,90.2,68.1,87.9,68.1,84.9z"></path>
		<path class="st0" d="M120.4,35.2c0-2.9,2.3-5.2,5.3-5.2c2.9,0,5.2,2.3,5.2,5.2v45.5H158c2.6,0,4.8,2.1,4.8,4.8    c0,2.6-2.1,4.8-4.8,4.8h-32.3c-3,0-5.3-2.3-5.3-5.3V35.2z"></path>
		<path class="st0" d="M168.2,84.9V35.7c0-3,2.3-5.3,5.3-5.3h34.8c2.6,0,4.7,2.1,4.7,4.7c0,2.7-2.1,4.7-4.7,4.7h-29.6v15.6h25.7    c2.6,0,4.7,2.1,4.7,4.8c0,2.6-2.1,4.6-4.7,4.6h-25.7v16.1h30c2.6,0,4.7,2.1,4.7,4.7c0,2.6-2.1,4.7-4.7,4.7h-35.2    C170.5,90.2,168.2,87.9,168.2,84.9z"></path>
		<path class="st0" d="M220.5,35.3c0-2.9,2.3-5.3,5.3-5.3h1.1c2.3,0,3.8,1.2,4.9,2.8l18.1,28.4l18.2-28.5c1.1-1.8,2.6-2.7,4.8-2.7    h1.1c3,0,5.3,2.4,5.3,5.3v50.1c0,2.9-2.3,5.2-5.3,5.2c-2.8,0-5.2-2.4-5.2-5.2V49.5l-14.6,22c-1.1,1.7-2.5,2.7-4.4,2.7    c-1.9,0-3.2-1-4.4-2.7l-14.5-21.8v35.8c0,2.9-2.3,5.1-5.2,5.1c-2.9,0-5.1-2.2-5.1-5.1V35.3z"></path>
		<path class="st0" d="M286.1,83.4l22.2-49.6c1.2-2.6,3.3-4.3,6.3-4.3h0.5c3,0,5,1.6,6.2,4.3l22.2,49.6c0.4,0.8,0.6,1.5,0.6,2.2    c0,2.8-2.1,5-5,5c-2.5,0-4.2-1.5-5.1-3.7l-4.9-11.2h-29.1l-5,11.5c-0.9,2.1-2.6,3.3-4.9,3.3c-2.7,0-4.9-2.1-4.9-4.9    C285.4,85,285.7,84.2,286.1,83.4z M325.3,66.5l-10.5-24.2l-10.5,24.2H325.3z"></path>
		<path class="st0" d="M358.5,40.1h-14.5c-2.7,0-4.9-2.2-4.9-4.9c0-2.7,2.1-4.9,4.9-4.9h39.8c2.6,0,4.8,2.2,4.8,4.9    c0,2.6-2.1,4.9-4.8,4.9H369v45.3c0,2.9-2.4,5.2-5.3,5.2c-2.9,0-5.3-2.3-5.3-5.2V40.1z"></path>
		<path class="st0" d="M394.1,84.9V35.7c0-3,2.3-5.3,5.3-5.3h34.8c2.6,0,4.7,2.1,4.7,4.7c0,2.7-2.1,4.7-4.7,4.7h-29.6v15.6h25.7    c2.6,0,4.7,2.1,4.7,4.8c0,2.6-2.1,4.6-4.7,4.6h-25.7v16.1h30c2.6,0,4.7,2.1,4.7,4.7c0,2.6-2.1,4.7-4.7,4.7h-35.2    C396.4,90.2,394.1,87.9,394.1,84.9z"></path>
		<path class="st0" d="M446.3,35.2c0-2.9,2.3-5.2,5.3-5.2c2.9,0,5.2,2.3,5.2,5.2v45.5H484c2.6,0,4.8,2.1,4.8,4.8    c0,2.6-2.1,4.8-4.8,4.8h-32.3c-3,0-5.3-2.3-5.3-5.3V35.2z"></path>
	</g>
	<g>
		<path class="st1" d="M518.2,90.4c-1.2,0-2.4-0.5-3.3-1.4c-1.8-1.8-1.8-4.8,0-6.7L537,60.2L514.9,38c-1.8-1.9-1.8-4.8,0-6.7    c1.8-1.8,4.8-1.8,6.7,0l25.5,25.5c1.8,1.8,1.8,4.8,0,6.7l-25.5,25.5C520.6,90,519.4,90.4,518.2,90.4z"></path>
	</g>
</g>
</svg>
